<svg width="63" height="63" viewBox="0 0 63 63" fill="none" xmlns="http://www.w3.org/2000/svg">
<mask id="mask0_331_761" style="mask-type:luminance" maskUnits="userSpaceOnUse" x="4" y="5" width="55" height="53">
<path fill-rule="evenodd" clip-rule="evenodd" d="M17.2161 6.5625H18.3789C24.5031 7.46812 26.1634 10.9436 31.5 10.9436C36.8366 10.9436 38.4969 7.46812 44.6224 6.5625H45.2812C46.9187 6.5625 48.5401 6.88501 50.0528 7.51163C51.5656 8.13824 52.9402 9.05668 54.098 10.2145C55.2558 11.3723 56.1743 12.7469 56.8009 14.2597C57.4275 15.7724 57.75 17.3938 57.75 19.0312V19.8529C57.75 23.6631 53.6944 28.0127 52.5 32.1339C51.2334 36.5098 50.3659 40.0877 50.1112 43.8296C49.5141 52.5984 46.5242 56.4375 43.3125 56.4375C38.5166 56.4375 34.2589 36.7828 31.5827 36.7828C28.9052 36.7828 23.5961 56.4375 19.6875 56.4375C17.3027 56.4375 14.2144 55.0266 13.0541 43.8296C12.5921 39.375 11.8125 36.6726 10.5 32.1339C9.34499 28.1439 5.44949 23.3769 5.24999 19.0982C5.17474 17.48 5.42848 15.8633 5.99588 14.3459C6.56328 12.8286 7.43254 11.4421 8.5511 10.2703C9.66966 9.09848 11.0143 8.16572 12.5036 7.52842C13.993 6.89112 15.5961 6.56253 17.2161 6.5625Z" fill="white" stroke="white" stroke-width="2"/>
<path d="M20.3201 16.3577L42.0013 23.348M20.3201 23.348L42.0013 16.3577" stroke="black" stroke-width="2" stroke-linecap="round"/>
</mask>
<g mask="url(#mask0_331_761)">
<path d="M0 0H63V63H0V0Z" fill="url(#paint0_linear_331_761)"/>
</g>
<defs>
<linearGradient id="paint0_linear_331_761" x1="0" y1="31.5" x2="63" y2="31.5" gradientUnits="userSpaceOnUse">
<stop stop-color="#E5D86F"/>
<stop offset="1" stop-color="#DFAB3D"/>
</linearGradient>
</defs>
</svg>
