<svg width="72" height="72" viewBox="0 0 72 72" fill="none" xmlns="http://www.w3.org/2000/svg">
<path d="M36 33C39.1826 33 42.2348 31.7357 44.4853 29.4853C46.7357 27.2348 48 24.1826 48 21C48 17.8174 46.7357 14.7652 44.4853 12.5147C42.2348 10.2643 39.1826 9 36 9C32.8174 9 29.7652 10.2643 27.5147 12.5147C25.2643 14.7652 24 17.8174 24 21C24 24.1826 25.2643 27.2348 27.5147 29.4853C29.7652 31.7357 32.8174 33 36 33ZM25.86 38.766L26.982 37.119C29.7097 38.3584 32.671 38.9997 35.667 39H36.336C38.9051 38.9996 41.4522 38.5278 43.851 37.608L44.64 38.766C45.006 39.306 45.375 40.356 45.621 41.685C45.861 42.966 45.927 44.181 45.882 44.85C45.8644 45.1549 45.9051 45.4604 46.002 45.75H44.868C44.4343 45.7505 44.0098 45.8747 43.6442 46.1079C43.2786 46.3412 42.9872 46.6739 42.804 47.067L40.731 51.507C40.5691 51.8545 40.4974 52.2372 40.5226 52.6197C40.5477 53.0022 40.6689 53.3722 40.875 53.6955C41.081 54.0187 41.3652 54.2848 41.7014 54.4691C42.0375 54.6535 42.4147 54.7501 42.798 54.75H46.2V50.25H49.95V54.75H53.202C53.5853 54.7501 53.9625 54.6535 54.2986 54.4691C54.6348 54.2848 54.919 54.0187 55.125 53.6955C55.3311 53.3722 55.4523 53.0022 55.4774 52.6197C55.5026 52.2372 55.4309 51.8545 55.269 51.507L53.199 47.067C53.0154 46.673 52.723 46.3397 52.3562 46.1063C51.9895 45.873 51.5637 45.7494 51.129 45.75H50.25C50.3154 45.5559 50.3558 45.3543 50.37 45.15C50.448 44.016 50.334 42.414 50.046 40.86C49.767 39.354 49.26 37.557 48.36 36.234L48.213 36.018C48.3647 36.0062 48.5168 36.0002 48.669 36C50.551 36 52.4145 36.3707 54.1532 37.0909C55.892 37.8111 57.4718 38.8667 58.8025 40.1975C60.1333 41.5282 61.1889 43.108 61.9091 44.8468C62.6293 46.5855 63 48.449 63 50.331V63H9V50.331C9 42.771 14.85 36.579 22.272 36.039L22.14 36.234C20.367 38.841 20.097 42.072 20.316 44.664C20.391 45.555 20.526 46.434 20.712 47.262C19.9716 47.9199 19.4689 48.8038 19.282 49.7765C19.0951 50.7492 19.2343 51.7564 19.678 52.6419C20.1218 53.5274 20.8453 54.2418 21.7365 54.6743C22.6276 55.1067 23.6365 55.2331 24.6067 55.0337C25.5769 54.8344 26.4543 54.3205 27.1028 53.5718C27.7512 52.8231 28.1345 51.8813 28.1932 50.8925C28.2519 49.9038 27.9828 48.9233 27.4275 48.1031C26.8722 47.2828 26.0618 46.6687 25.122 46.356C24.9659 45.6744 24.8576 44.9827 24.798 44.286C24.618 42.168 24.918 40.149 25.86 38.766Z" fill="url(#paint0_linear_331_752)"/>
<defs>
<linearGradient id="paint0_linear_331_752" x1="9" y1="36" x2="63" y2="36" gradientUnits="userSpaceOnUse">
<stop stop-color="#E5D86F"/>
<stop offset="1" stop-color="#DFAB3D"/>
</linearGradient>
</defs>
</svg>
