<svg width="50" height="50" viewBox="0 0 50 50" fill="none" xmlns="http://www.w3.org/2000/svg">
<path d="M23.7293 21.6459L15.6251 29.7438L7.52092 21.6459C5.91898 20.0432 4.82821 18.0015 4.38653 15.7789C3.94484 13.5564 4.17207 11.2528 5.03948 9.15934C5.90689 7.06591 7.37554 5.27668 9.25974 4.01786C11.1439 2.75904 13.3591 2.08716 15.6251 2.08716C17.8911 2.08716 20.1062 2.75904 21.9904 4.01786C23.8746 5.27668 25.3433 7.06591 26.2107 9.15934C27.0781 11.2528 27.3053 13.5564 26.8636 15.7789C26.422 18.0015 25.3312 20.0432 23.7293 21.6459ZM15.6251 17.7084C16.7302 17.7084 17.79 17.2694 18.5714 16.488C19.3528 15.7066 19.7918 14.6468 19.7918 13.5417C19.7918 12.4366 19.3528 11.3768 18.5714 10.5954C17.79 9.81401 16.7302 9.37502 15.6251 9.37502C14.52 9.37502 13.4602 9.81401 12.6788 10.5954C11.8974 11.3768 11.4584 12.4366 11.4584 13.5417C11.4584 14.6468 11.8974 15.7066 12.6788 16.488C13.4602 17.2694 14.52 17.7084 15.6251 17.7084ZM42.4792 40.3959L34.3751 48.4959L26.2709 40.3938C24.669 38.7911 23.5782 36.7494 23.1365 34.5268C22.6948 32.3043 22.9221 30.0007 23.7895 27.9073C24.6569 25.8138 26.1255 24.0246 28.0097 22.7658C29.8939 21.507 32.1091 20.8351 34.3751 20.8351C36.6411 20.8351 38.8562 21.507 40.7404 22.7658C42.6246 24.0246 44.0933 25.8138 44.9607 27.9073C45.8281 30.0007 46.0553 32.3043 45.6136 34.5268C45.172 36.7494 44.0812 38.7932 42.4792 40.3959ZM34.3751 36.4584C35.4802 36.4584 36.54 36.0194 37.3214 35.238C38.1028 34.4566 38.5418 33.3968 38.5418 32.2917C38.5418 31.1866 38.1028 30.1268 37.3214 29.3454C36.54 28.564 35.4802 28.125 34.3751 28.125C33.27 28.125 32.2102 28.564 31.4288 29.3454C30.6474 30.1268 30.2084 31.1866 30.2084 32.2917C30.2084 33.3968 30.6474 34.4566 31.4288 35.238C32.2102 36.0194 33.27 36.4584 34.3751 36.4584Z" fill="url(#paint0_linear_2445_738)"/>
<defs>
<linearGradient id="paint0_linear_2445_738" x1="25.0001" y1="2.08716" x2="25.0001" y2="48.4959" gradientUnits="userSpaceOnUse">
<stop stop-color="#E5D86F"/>
<stop offset="1" stop-color="#DFAB3D"/>
</linearGradient>
</defs>
</svg>
