<svg width="36" height="36" viewBox="0 0 36 36" fill="none" xmlns="http://www.w3.org/2000/svg">
<path d="M0 31.8857V13.3714C0 12.72 0.15975 12.1029 0.479249 11.52C0.798749 10.9371 1.239 10.4571 1.8 10.08L15.3 0.822857C16.0875 0.274286 16.9875 0 18 0C19.0125 0 19.9125 0.274286 20.7 0.822857L34.2 10.08C34.7625 10.4571 35.2035 10.9371 35.523 11.52C35.8425 12.1029 36.0015 12.72 36 13.3714V31.8857C36 33.0171 35.559 33.9861 34.677 34.7924C33.795 35.5989 32.736 36.0014 31.5 36H24.75C24.1125 36 23.5785 35.8025 23.148 35.4075C22.7175 35.0126 22.5015 34.5243 22.5 33.9429V23.6571C22.5 23.0743 22.284 22.5861 21.852 22.1925C21.42 21.7989 20.886 21.6014 20.25 21.6H15.75C15.1125 21.6 14.5785 21.7975 14.148 22.1925C13.7175 22.5874 13.5015 23.0757 13.5 23.6571V33.9429C13.5 34.5257 13.284 35.0146 12.852 35.4096C12.42 35.8046 11.886 36.0014 11.25 36H4.5C3.2625 36 2.2035 35.5975 1.323 34.7924C0.442499 33.9874 0.0015 33.0185 0 31.8857Z" fill="url(#paint0_linear_1178_1639)"/>
<defs>
<linearGradient id="paint0_linear_1178_1639" x1="18" y1="0" x2="18" y2="36" gradientUnits="userSpaceOnUse">
<stop stop-color="#E5D86F"/>
<stop offset="1" stop-color="#DFAB3D"/>
</linearGradient>
</defs>
</svg>
