<svg width="66" height="66" viewBox="0 0 66 66" fill="none" xmlns="http://www.w3.org/2000/svg">
<path d="M59.125 11H51.7917V16.5C51.7917 17.0296 51.6873 17.5541 51.4847 18.0435C51.282 18.5328 50.9849 18.9774 50.6103 19.352C50.2358 19.7265 49.7912 20.0236 49.3018 20.2263C48.8125 20.429 48.288 20.5333 47.7583 20.5333C47.2287 20.5333 46.7042 20.429 46.2148 20.2263C45.7255 20.0236 45.2809 19.7265 44.9063 19.352C44.5318 18.9774 44.2347 18.5328 44.032 18.0435C43.8293 17.5541 43.725 17.0296 43.725 16.5V11H22.3667V16.5C22.3667 17.5697 21.9417 18.5956 21.1853 19.352C20.4289 20.1084 19.403 20.5333 18.3333 20.5333C17.2636 20.5333 16.2377 20.1084 15.4813 19.352C14.7249 18.5956 14.3 17.5697 14.3 16.5V11H6.96667C6.53038 10.995 6.09752 11.0776 5.6937 11.2428C5.28988 11.408 4.9233 11.6526 4.61563 11.962C4.30796 12.2713 4.06546 12.6393 3.90246 13.044C3.73947 13.4487 3.65929 13.882 3.66667 14.3183V55.3483C3.65939 55.7769 3.7366 56.2027 3.8939 56.6014C4.05121 57.0001 4.28552 57.3639 4.58345 57.6721C4.88138 57.9802 5.2371 58.2267 5.63029 58.3973C6.02348 58.568 6.44644 58.6595 6.875 58.6666H59.125C59.5536 58.6595 59.9765 58.568 60.3697 58.3973C60.7629 58.2267 61.1186 57.9802 61.4166 57.6721C61.7145 57.3639 61.9488 57.0001 62.1061 56.6014C62.2634 56.2027 62.3406 55.7769 62.3333 55.3483V14.3183C62.3406 13.8897 62.2634 13.4639 62.1061 13.0652C61.9488 12.6665 61.7145 12.3027 61.4166 11.9945C61.1186 11.6864 60.7629 11.4399 60.3697 11.2693C59.9765 11.0986 59.5536 11.0071 59.125 11ZM18.3333 47.6666H14.6667V44H18.3333V47.6666ZM18.3333 38.5H14.6667V34.8333H18.3333V38.5ZM18.3333 29.3333H14.6667V25.6666H18.3333V29.3333ZM29.3333 47.6666H25.6667V44H29.3333V47.6666ZM29.3333 38.5H25.6667V34.8333H29.3333V38.5ZM29.3333 29.3333H25.6667V25.6666H29.3333V29.3333ZM40.3333 47.6666H36.6667V44H40.3333V47.6666ZM40.3333 38.5H36.6667V34.8333H40.3333V38.5ZM40.3333 29.3333H36.6667V25.6666H40.3333V29.3333ZM51.3333 47.6666H47.6667V44H51.3333V47.6666ZM51.3333 38.5H47.6667V34.8333H51.3333V38.5ZM51.3333 29.3333H47.6667V25.6666H51.3333V29.3333Z" fill="url(#paint0_linear_287_1302)"/>
<path d="M18.3333 18.3333C18.8196 18.3333 19.2859 18.1401 19.6297 17.7963C19.9735 17.4525 20.1667 16.9862 20.1667 16.5V5.49996C20.1667 5.01373 19.9735 4.54741 19.6297 4.2036C19.2859 3.85978 18.8196 3.66663 18.3333 3.66663C17.8471 3.66663 17.3808 3.85978 17.037 4.2036C16.6932 4.54741 16.5 5.01373 16.5 5.49996V16.5C16.5 16.9862 16.6932 17.4525 17.037 17.7963C17.3808 18.1401 17.8471 18.3333 18.3333 18.3333Z" fill="url(#paint1_linear_287_1302)"/>
<path d="M47.6667 18.3333C48.1529 18.3333 48.6192 18.1401 48.963 17.7963C49.3069 17.4525 49.5 16.9862 49.5 16.5V5.49996C49.5 5.01373 49.3069 4.54741 48.963 4.2036C48.6192 3.85978 48.1529 3.66663 47.6667 3.66663C47.1804 3.66663 46.7141 3.85978 46.3703 4.2036C46.0265 4.54741 45.8333 5.01373 45.8333 5.49996V16.5C45.8333 16.9862 46.0265 17.4525 46.3703 17.7963C46.7141 18.1401 47.1804 18.3333 47.6667 18.3333Z" fill="url(#paint2_linear_287_1302)"/>
<defs>
<linearGradient id="paint0_linear_287_1302" x1="3.6662" y1="34.8332" x2="62.3338" y2="34.8332" gradientUnits="userSpaceOnUse">
<stop stop-color="#E5D86F"/>
<stop offset="1" stop-color="#DFAB3D"/>
</linearGradient>
<linearGradient id="paint1_linear_287_1302" x1="16.5" y1="11" x2="20.1667" y2="11" gradientUnits="userSpaceOnUse">
<stop stop-color="#E5D86F"/>
<stop offset="1" stop-color="#DFAB3D"/>
</linearGradient>
<linearGradient id="paint2_linear_287_1302" x1="45.8333" y1="11" x2="49.5" y2="11" gradientUnits="userSpaceOnUse">
<stop stop-color="#E5D86F"/>
<stop offset="1" stop-color="#DFAB3D"/>
</linearGradient>
</defs>
</svg>
