<svg width="41" height="41" viewBox="0 0 41 41" fill="none" xmlns="http://www.w3.org/2000/svg">
<mask id="mask0_1178_1642" style="mask-type:luminance" maskUnits="userSpaceOnUse" x="2" y="3" width="37" height="35">
<path fill-rule="evenodd" clip-rule="evenodd" d="M11.2041 4.27075H11.9608C15.9464 4.86013 17.0269 7.12196 20.5 7.12196C23.973 7.12196 25.0535 4.86013 29.0399 4.27075H29.4687C30.5343 4.27075 31.5895 4.48064 32.574 4.88844C33.5585 5.29623 34.4531 5.89395 35.2066 6.64746C35.9601 7.40097 36.5578 8.29551 36.9656 9.28002C37.3734 10.2645 37.5833 11.3197 37.5833 12.3853V12.92C37.5833 15.3997 34.9439 18.2304 34.1666 20.9125C33.3424 23.7603 32.7777 26.0887 32.612 28.524C32.2234 34.2307 30.2776 36.7291 28.1875 36.7291C25.0663 36.7291 22.2954 23.9379 20.5538 23.9379C18.8113 23.9379 15.3562 36.7291 12.8125 36.7291C11.2604 36.7291 9.25058 35.8109 8.4955 28.524C8.19483 25.6249 7.68745 23.8662 6.83329 20.9125C6.08162 18.3158 3.54645 15.2135 3.41662 12.4289C3.36764 11.3758 3.53278 10.3237 3.90204 9.33617C4.2713 8.34869 4.83701 7.44636 5.56496 6.68375C6.29291 5.92115 7.16797 5.31412 8.13723 4.89937C9.10648 4.48462 10.1498 4.27077 11.2041 4.27075Z" fill="white" stroke="white" stroke-width="2"/>
<path d="M13.2241 10.6455L27.3341 15.1948M13.2241 15.1948L27.3341 10.6455" stroke="black" stroke-width="2" stroke-linecap="round"/>
</mask>
<g mask="url(#mask0_1178_1642)">
<path d="M0 0H41V41H0V0Z" fill="url(#paint0_linear_1178_1642)"/>
</g>
<defs>
<linearGradient id="paint0_linear_1178_1642" x1="20.5" y1="0" x2="20.5" y2="41" gradientUnits="userSpaceOnUse">
<stop stop-color="#E5D86F"/>
<stop offset="1" stop-color="#DFAB3D"/>
</linearGradient>
</defs>
</svg>
